<mxfile host="app.diagrams.net" modified="2024-02-08T17:37:16.869Z" agent="Mozilla/5.0 (Windows NT 10.0; Win64; x64) AppleWebKit/537.36 (KHTML, like Gecko) Chrome/121.0.0.0 Safari/537.36" etag="GsPbMTYQbeiJ107sI3ox" version="23.1.1" type="github" pages="2">
  <diagram name="Page-1" id="rpOGyQDT9RvItj2ISRuF">
    <mxGraphModel dx="1140" dy="676" grid="1" gridSize="10" guides="1" tooltips="1" connect="1" arrows="1" fold="1" page="1" pageScale="1" pageWidth="827" pageHeight="1169" math="0" shadow="0">
      <root>
        <mxCell id="0" />
        <mxCell id="1" parent="0" />
        <mxCell id="u0Y3Z8oXqT2Pup6am5xu-15" value="" style="rounded=0;whiteSpace=wrap;html=1;" parent="1" vertex="1">
          <mxGeometry x="155" width="595" height="1320" as="geometry" />
        </mxCell>
        <mxCell id="ArjMrXQ489HIKMiuhsJ--1" value="" style="rounded=0;whiteSpace=wrap;html=1;fillColor=#fff2cc;strokeColor=#d6b656;" parent="1" vertex="1">
          <mxGeometry x="350" y="40" width="240" height="1240" as="geometry" />
        </mxCell>
        <mxCell id="ArjMrXQ489HIKMiuhsJ--2" value="&lt;b&gt;&lt;font style=&quot;font-size: 15px;&quot;&gt;Movie Ticket Booking&lt;/font&gt;&lt;/b&gt;" style="text;html=1;strokeColor=none;fillColor=none;align=center;verticalAlign=middle;whiteSpace=wrap;rounded=0;" parent="1" vertex="1">
          <mxGeometry x="380" y="50" width="180" height="30" as="geometry" />
        </mxCell>
        <mxCell id="ArjMrXQ489HIKMiuhsJ--3" value="Customer&lt;br&gt;" style="shape=umlActor;verticalLabelPosition=bottom;verticalAlign=top;html=1;outlineConnect=0;comic=0;" parent="1" vertex="1">
          <mxGeometry x="200" y="240" width="30" height="60" as="geometry" />
        </mxCell>
        <mxCell id="ArjMrXQ489HIKMiuhsJ--4" value="Search Movies" style="ellipse;whiteSpace=wrap;html=1;" parent="1" vertex="1">
          <mxGeometry x="420" y="100" width="100" height="50" as="geometry" />
        </mxCell>
        <mxCell id="ArjMrXQ489HIKMiuhsJ--5" value="Book Ticket" style="ellipse;whiteSpace=wrap;html=1;" parent="1" vertex="1">
          <mxGeometry x="420" y="170" width="100" height="50" as="geometry" />
        </mxCell>
        <mxCell id="ArjMrXQ489HIKMiuhsJ--6" value="Cancel Ticket" style="ellipse;whiteSpace=wrap;html=1;" parent="1" vertex="1">
          <mxGeometry x="420" y="240" width="100" height="50" as="geometry" />
        </mxCell>
        <mxCell id="ArjMrXQ489HIKMiuhsJ--7" value="" style="endArrow=classic;html=1;rounded=0;entryX=0;entryY=0.5;entryDx=0;entryDy=0;exitX=1;exitY=0.3333333333333333;exitDx=0;exitDy=0;exitPerimeter=0;" parent="1" source="ArjMrXQ489HIKMiuhsJ--3" target="ArjMrXQ489HIKMiuhsJ--4" edge="1">
          <mxGeometry width="50" height="50" relative="1" as="geometry">
            <mxPoint x="240" y="200" as="sourcePoint" />
            <mxPoint x="290" y="150" as="targetPoint" />
          </mxGeometry>
        </mxCell>
        <mxCell id="ArjMrXQ489HIKMiuhsJ--8" value="" style="endArrow=classic;html=1;rounded=0;exitX=1;exitY=0.3333333333333333;exitDx=0;exitDy=0;exitPerimeter=0;entryX=0;entryY=0.5;entryDx=0;entryDy=0;" parent="1" source="ArjMrXQ489HIKMiuhsJ--3" target="ArjMrXQ489HIKMiuhsJ--5" edge="1">
          <mxGeometry width="50" height="50" relative="1" as="geometry">
            <mxPoint x="410" y="270" as="sourcePoint" />
            <mxPoint x="460" y="220" as="targetPoint" />
          </mxGeometry>
        </mxCell>
        <mxCell id="ArjMrXQ489HIKMiuhsJ--9" value="" style="endArrow=classic;html=1;rounded=0;exitX=1;exitY=0.3333333333333333;exitDx=0;exitDy=0;exitPerimeter=0;entryX=0.018;entryY=0.417;entryDx=0;entryDy=0;entryPerimeter=0;" parent="1" source="ArjMrXQ489HIKMiuhsJ--3" target="ArjMrXQ489HIKMiuhsJ--6" edge="1">
          <mxGeometry width="50" height="50" relative="1" as="geometry">
            <mxPoint x="410" y="270" as="sourcePoint" />
            <mxPoint x="460" y="220" as="targetPoint" />
          </mxGeometry>
        </mxCell>
        <mxCell id="ArjMrXQ489HIKMiuhsJ--10" value="Manage Profile" style="ellipse;whiteSpace=wrap;html=1;" parent="1" vertex="1">
          <mxGeometry x="420" y="380" width="100" height="50" as="geometry" />
        </mxCell>
        <mxCell id="ArjMrXQ489HIKMiuhsJ--11" value="View Booking history" style="ellipse;whiteSpace=wrap;html=1;" parent="1" vertex="1">
          <mxGeometry x="420" y="310" width="100" height="50" as="geometry" />
        </mxCell>
        <mxCell id="ArjMrXQ489HIKMiuhsJ--12" value="" style="endArrow=classic;html=1;rounded=0;entryX=0;entryY=0.5;entryDx=0;entryDy=0;exitX=1;exitY=0.3333333333333333;exitDx=0;exitDy=0;exitPerimeter=0;" parent="1" source="ArjMrXQ489HIKMiuhsJ--3" target="ArjMrXQ489HIKMiuhsJ--10" edge="1">
          <mxGeometry width="50" height="50" relative="1" as="geometry">
            <mxPoint x="240" y="200" as="sourcePoint" />
            <mxPoint x="460" y="290" as="targetPoint" />
          </mxGeometry>
        </mxCell>
        <mxCell id="ArjMrXQ489HIKMiuhsJ--13" value="" style="endArrow=classic;html=1;rounded=0;entryX=0.017;entryY=0.4;entryDx=0;entryDy=0;entryPerimeter=0;exitX=1;exitY=0.3333333333333333;exitDx=0;exitDy=0;exitPerimeter=0;" parent="1" source="ArjMrXQ489HIKMiuhsJ--3" target="ArjMrXQ489HIKMiuhsJ--11" edge="1">
          <mxGeometry width="50" height="50" relative="1" as="geometry">
            <mxPoint x="240" y="200" as="sourcePoint" />
            <mxPoint x="460" y="290" as="targetPoint" />
          </mxGeometry>
        </mxCell>
        <mxCell id="ArjMrXQ489HIKMiuhsJ--19" value="Theatre Admin" style="shape=umlActor;verticalLabelPosition=bottom;verticalAlign=top;html=1;outlineConnect=0;" parent="1" vertex="1">
          <mxGeometry x="200" y="660" width="30" height="60" as="geometry" />
        </mxCell>
        <mxCell id="ArjMrXQ489HIKMiuhsJ--20" value="Add Movie" style="ellipse;whiteSpace=wrap;html=1;" parent="1" vertex="1">
          <mxGeometry x="420" y="560" width="100" height="50" as="geometry" />
        </mxCell>
        <mxCell id="ArjMrXQ489HIKMiuhsJ--21" value="Remove Movie" style="ellipse;whiteSpace=wrap;html=1;" parent="1" vertex="1">
          <mxGeometry x="420" y="760" width="100" height="50" as="geometry" />
        </mxCell>
        <mxCell id="ArjMrXQ489HIKMiuhsJ--22" value="" style="endArrow=classic;html=1;rounded=0;exitX=1;exitY=0.3333333333333333;exitDx=0;exitDy=0;exitPerimeter=0;entryX=0;entryY=0.5;entryDx=0;entryDy=0;" parent="1" source="ArjMrXQ489HIKMiuhsJ--19" target="ArjMrXQ489HIKMiuhsJ--20" edge="1">
          <mxGeometry width="50" height="50" relative="1" as="geometry">
            <mxPoint x="410" y="550" as="sourcePoint" />
            <mxPoint x="460" y="500" as="targetPoint" />
          </mxGeometry>
        </mxCell>
        <mxCell id="ArjMrXQ489HIKMiuhsJ--23" value="" style="endArrow=classic;html=1;rounded=0;exitX=1;exitY=0.3333333333333333;exitDx=0;exitDy=0;exitPerimeter=0;entryX=0;entryY=0.5;entryDx=0;entryDy=0;" parent="1" source="ArjMrXQ489HIKMiuhsJ--19" target="ArjMrXQ489HIKMiuhsJ--21" edge="1">
          <mxGeometry width="50" height="50" relative="1" as="geometry">
            <mxPoint x="410" y="550" as="sourcePoint" />
            <mxPoint x="460" y="500" as="targetPoint" />
          </mxGeometry>
        </mxCell>
        <mxCell id="ArjMrXQ489HIKMiuhsJ--24" value="Edit Movie Details" style="ellipse;whiteSpace=wrap;html=1;" parent="1" vertex="1">
          <mxGeometry x="420" y="700" width="100" height="50" as="geometry" />
        </mxCell>
        <mxCell id="ArjMrXQ489HIKMiuhsJ--25" value="" style="endArrow=classic;html=1;rounded=0;exitX=1;exitY=0.3333333333333333;exitDx=0;exitDy=0;exitPerimeter=0;entryX=0;entryY=0.5;entryDx=0;entryDy=0;" parent="1" source="ArjMrXQ489HIKMiuhsJ--19" target="ArjMrXQ489HIKMiuhsJ--24" edge="1">
          <mxGeometry width="50" height="50" relative="1" as="geometry">
            <mxPoint x="410" y="710" as="sourcePoint" />
            <mxPoint x="460" y="660" as="targetPoint" />
          </mxGeometry>
        </mxCell>
        <mxCell id="ArjMrXQ489HIKMiuhsJ--27" value="View Scheduled bookings&amp;nbsp;" style="ellipse;whiteSpace=wrap;html=1;" parent="1" vertex="1">
          <mxGeometry x="420" y="640" width="100" height="50" as="geometry" />
        </mxCell>
        <mxCell id="ArjMrXQ489HIKMiuhsJ--28" value="" style="endArrow=classic;html=1;rounded=0;exitX=1;exitY=0.3333333333333333;exitDx=0;exitDy=0;exitPerimeter=0;entryX=0;entryY=0.5;entryDx=0;entryDy=0;" parent="1" source="ArjMrXQ489HIKMiuhsJ--19" target="ArjMrXQ489HIKMiuhsJ--27" edge="1">
          <mxGeometry width="50" height="50" relative="1" as="geometry">
            <mxPoint x="410" y="710" as="sourcePoint" />
            <mxPoint x="460" y="660" as="targetPoint" />
          </mxGeometry>
        </mxCell>
        <mxCell id="ArjMrXQ489HIKMiuhsJ--30" value="Add Slot" style="ellipse;whiteSpace=wrap;html=1;" parent="1" vertex="1">
          <mxGeometry x="420" y="500" width="100" height="50" as="geometry" />
        </mxCell>
        <mxCell id="ArjMrXQ489HIKMiuhsJ--31" value="Edit Slot" style="ellipse;whiteSpace=wrap;html=1;" parent="1" vertex="1">
          <mxGeometry x="420" y="820" width="100" height="50" as="geometry" />
        </mxCell>
        <mxCell id="ArjMrXQ489HIKMiuhsJ--32" value="" style="endArrow=classic;html=1;rounded=0;exitX=1;exitY=0.3333333333333333;exitDx=0;exitDy=0;exitPerimeter=0;entryX=0.022;entryY=0.393;entryDx=0;entryDy=0;entryPerimeter=0;" parent="1" source="ArjMrXQ489HIKMiuhsJ--19" target="ArjMrXQ489HIKMiuhsJ--30" edge="1">
          <mxGeometry width="50" height="50" relative="1" as="geometry">
            <mxPoint x="410" y="750" as="sourcePoint" />
            <mxPoint x="460" y="700" as="targetPoint" />
          </mxGeometry>
        </mxCell>
        <mxCell id="ArjMrXQ489HIKMiuhsJ--33" value="" style="endArrow=classic;html=1;rounded=0;exitX=1;exitY=0.3333333333333333;exitDx=0;exitDy=0;exitPerimeter=0;entryX=0;entryY=0.5;entryDx=0;entryDy=0;" parent="1" source="ArjMrXQ489HIKMiuhsJ--19" target="ArjMrXQ489HIKMiuhsJ--31" edge="1">
          <mxGeometry width="50" height="50" relative="1" as="geometry">
            <mxPoint x="410" y="750" as="sourcePoint" />
            <mxPoint x="460" y="700" as="targetPoint" />
          </mxGeometry>
        </mxCell>
        <mxCell id="u0Y3Z8oXqT2Pup6am5xu-1" value="System Administrator&amp;nbsp;" style="shape=umlActor;verticalLabelPosition=bottom;verticalAlign=top;html=1;outlineConnect=0;" parent="1" vertex="1">
          <mxGeometry x="200" y="1065" width="30" height="60" as="geometry" />
        </mxCell>
        <mxCell id="u0Y3Z8oXqT2Pup6am5xu-2" value="Add Theatre" style="ellipse;whiteSpace=wrap;html=1;" parent="1" vertex="1">
          <mxGeometry x="420" y="1000" width="100" height="50" as="geometry" />
        </mxCell>
        <mxCell id="u0Y3Z8oXqT2Pup6am5xu-3" value="Remove Theatre" style="ellipse;whiteSpace=wrap;html=1;" parent="1" vertex="1">
          <mxGeometry x="420" y="1070" width="100" height="50" as="geometry" />
        </mxCell>
        <mxCell id="u0Y3Z8oXqT2Pup6am5xu-5" value="Edit Theatre Details" style="ellipse;whiteSpace=wrap;html=1;" parent="1" vertex="1">
          <mxGeometry x="420" y="1140" width="100" height="50" as="geometry" />
        </mxCell>
        <mxCell id="u0Y3Z8oXqT2Pup6am5xu-11" value="" style="endArrow=classic;html=1;rounded=0;entryX=0;entryY=0.5;entryDx=0;entryDy=0;exitX=1;exitY=0.3333333333333333;exitDx=0;exitDy=0;exitPerimeter=0;" parent="1" source="u0Y3Z8oXqT2Pup6am5xu-1" target="u0Y3Z8oXqT2Pup6am5xu-2" edge="1">
          <mxGeometry width="50" height="50" relative="1" as="geometry">
            <mxPoint x="290" y="1115" as="sourcePoint" />
            <mxPoint x="340" y="1065" as="targetPoint" />
          </mxGeometry>
        </mxCell>
        <mxCell id="u0Y3Z8oXqT2Pup6am5xu-12" value="" style="endArrow=classic;html=1;rounded=0;entryX=0;entryY=0.5;entryDx=0;entryDy=0;exitX=1;exitY=0.3333333333333333;exitDx=0;exitDy=0;exitPerimeter=0;" parent="1" source="u0Y3Z8oXqT2Pup6am5xu-1" target="u0Y3Z8oXqT2Pup6am5xu-3" edge="1">
          <mxGeometry width="50" height="50" relative="1" as="geometry">
            <mxPoint x="330" y="1140" as="sourcePoint" />
            <mxPoint x="380" y="1090" as="targetPoint" />
          </mxGeometry>
        </mxCell>
        <mxCell id="u0Y3Z8oXqT2Pup6am5xu-13" value="" style="endArrow=classic;html=1;rounded=0;entryX=0;entryY=0.5;entryDx=0;entryDy=0;exitX=1;exitY=0.3333333333333333;exitDx=0;exitDy=0;exitPerimeter=0;" parent="1" source="u0Y3Z8oXqT2Pup6am5xu-1" target="u0Y3Z8oXqT2Pup6am5xu-5" edge="1">
          <mxGeometry width="50" height="50" relative="1" as="geometry">
            <mxPoint x="300" y="1180" as="sourcePoint" />
            <mxPoint x="340" y="1150" as="targetPoint" />
          </mxGeometry>
        </mxCell>
      </root>
    </mxGraphModel>
  </diagram>
  <diagram id="9rwx_Wj0N8vKIkJjqyVu" name="Page-2">
    <mxGraphModel dx="1967" dy="1845" grid="1" gridSize="10" guides="1" tooltips="1" connect="1" arrows="1" fold="1" page="1" pageScale="1" pageWidth="827" pageHeight="1169" math="0" shadow="0">
      <root>
        <mxCell id="0" />
        <mxCell id="1" parent="0" />
        <mxCell id="FAJxj6uEZD9glTGLpSgn-13" style="rounded=0;orthogonalLoop=1;jettySize=auto;html=1;entryX=0;entryY=0.5;entryDx=0;entryDy=0;" parent="1" source="FAJxj6uEZD9glTGLpSgn-1" target="FAJxj6uEZD9glTGLpSgn-10" edge="1">
          <mxGeometry relative="1" as="geometry" />
        </mxCell>
        <mxCell id="FAJxj6uEZD9glTGLpSgn-1" value="Movie Show" style="rounded=0;whiteSpace=wrap;html=1;fillColor=#dae8fc;strokeColor=#6c8ebf;" parent="1" vertex="1">
          <mxGeometry x="312" y="250" width="120" height="60" as="geometry" />
        </mxCell>
        <mxCell id="FAJxj6uEZD9glTGLpSgn-2" value="Customer" style="rounded=0;whiteSpace=wrap;html=1;fillColor=#dae8fc;strokeColor=#6c8ebf;" parent="1" vertex="1">
          <mxGeometry x="316" y="-145" width="120" height="60" as="geometry" />
        </mxCell>
        <mxCell id="FAJxj6uEZD9glTGLpSgn-52" style="edgeStyle=orthogonalEdgeStyle;rounded=0;orthogonalLoop=1;jettySize=auto;html=1;entryX=0;entryY=0.5;entryDx=0;entryDy=0;" parent="1" source="FAJxj6uEZD9glTGLpSgn-3" target="FAJxj6uEZD9glTGLpSgn-51" edge="1">
          <mxGeometry relative="1" as="geometry">
            <Array as="points">
              <mxPoint x="730" y="190" />
            </Array>
          </mxGeometry>
        </mxCell>
        <mxCell id="FAJxj6uEZD9glTGLpSgn-54" style="edgeStyle=orthogonalEdgeStyle;rounded=0;orthogonalLoop=1;jettySize=auto;html=1;" parent="1" source="FAJxj6uEZD9glTGLpSgn-3" target="FAJxj6uEZD9glTGLpSgn-49" edge="1">
          <mxGeometry relative="1" as="geometry" />
        </mxCell>
        <mxCell id="jMHmI-cRYMjAyGBczA-L-2" style="rounded=0;orthogonalLoop=1;jettySize=auto;html=1;exitX=0.75;exitY=1;exitDx=0;exitDy=0;entryX=0;entryY=0.5;entryDx=0;entryDy=0;" edge="1" parent="1" source="FAJxj6uEZD9glTGLpSgn-3" target="jMHmI-cRYMjAyGBczA-L-1">
          <mxGeometry relative="1" as="geometry" />
        </mxCell>
        <mxCell id="FAJxj6uEZD9glTGLpSgn-3" value="Theatre" style="rounded=0;whiteSpace=wrap;html=1;fillColor=#dae8fc;strokeColor=#6c8ebf;" parent="1" vertex="1">
          <mxGeometry x="660" y="250" width="120" height="60" as="geometry" />
        </mxCell>
        <mxCell id="FAJxj6uEZD9glTGLpSgn-63" style="edgeStyle=orthogonalEdgeStyle;rounded=0;orthogonalLoop=1;jettySize=auto;html=1;entryX=0.5;entryY=1;entryDx=0;entryDy=0;" parent="1" source="FAJxj6uEZD9glTGLpSgn-5" target="FAJxj6uEZD9glTGLpSgn-60" edge="1">
          <mxGeometry relative="1" as="geometry">
            <Array as="points">
              <mxPoint x="620" y="20" />
              <mxPoint x="560" y="20" />
            </Array>
          </mxGeometry>
        </mxCell>
        <mxCell id="FAJxj6uEZD9glTGLpSgn-64" style="edgeStyle=orthogonalEdgeStyle;rounded=0;orthogonalLoop=1;jettySize=auto;html=1;entryX=0.5;entryY=1;entryDx=0;entryDy=0;" parent="1" source="FAJxj6uEZD9glTGLpSgn-5" edge="1">
          <mxGeometry relative="1" as="geometry">
            <mxPoint x="670" y="-50" as="targetPoint" />
            <Array as="points">
              <mxPoint x="670" y="20" />
              <mxPoint x="670" y="20" />
            </Array>
          </mxGeometry>
        </mxCell>
        <mxCell id="FAJxj6uEZD9glTGLpSgn-65" style="edgeStyle=orthogonalEdgeStyle;rounded=0;orthogonalLoop=1;jettySize=auto;html=1;" parent="1" source="FAJxj6uEZD9glTGLpSgn-5" target="FAJxj6uEZD9glTGLpSgn-62" edge="1">
          <mxGeometry relative="1" as="geometry" />
        </mxCell>
        <mxCell id="FRrUPI4zNOP217x3GCxh-18" style="edgeStyle=orthogonalEdgeStyle;rounded=0;orthogonalLoop=1;jettySize=auto;html=1;" parent="1" source="FAJxj6uEZD9glTGLpSgn-5" target="FRrUPI4zNOP217x3GCxh-17" edge="1">
          <mxGeometry relative="1" as="geometry">
            <Array as="points">
              <mxPoint x="800" y="90" />
              <mxPoint x="800" y="35" />
            </Array>
          </mxGeometry>
        </mxCell>
        <mxCell id="FAJxj6uEZD9glTGLpSgn-5" value="Movie" style="rounded=0;whiteSpace=wrap;html=1;fillColor=#dae8fc;strokeColor=#6c8ebf;" parent="1" vertex="1">
          <mxGeometry x="610" y="40" width="120" height="60" as="geometry" />
        </mxCell>
        <mxCell id="FRrUPI4zNOP217x3GCxh-3" style="edgeStyle=orthogonalEdgeStyle;rounded=0;orthogonalLoop=1;jettySize=auto;html=1;entryX=1;entryY=0.5;entryDx=0;entryDy=0;" parent="1" source="FAJxj6uEZD9glTGLpSgn-6" target="T1D6QIcHysQejSJhd26s-3" edge="1">
          <mxGeometry relative="1" as="geometry">
            <mxPoint x="-49.99999999999136" y="255" as="targetPoint" />
          </mxGeometry>
        </mxCell>
        <mxCell id="FRrUPI4zNOP217x3GCxh-4" style="edgeStyle=orthogonalEdgeStyle;rounded=0;orthogonalLoop=1;jettySize=auto;html=1;entryX=1;entryY=0.5;entryDx=0;entryDy=0;" parent="1" source="FAJxj6uEZD9glTGLpSgn-6" target="FAJxj6uEZD9glTGLpSgn-43" edge="1">
          <mxGeometry relative="1" as="geometry">
            <Array as="points">
              <mxPoint x="10" y="335" />
            </Array>
          </mxGeometry>
        </mxCell>
        <mxCell id="FRrUPI4zNOP217x3GCxh-24" style="edgeStyle=orthogonalEdgeStyle;rounded=0;orthogonalLoop=1;jettySize=auto;html=1;entryX=1;entryY=0.5;entryDx=0;entryDy=0;" parent="1" source="FAJxj6uEZD9glTGLpSgn-6" target="FRrUPI4zNOP217x3GCxh-25" edge="1">
          <mxGeometry relative="1" as="geometry">
            <mxPoint x="60" y="380" as="targetPoint" />
            <Array as="points">
              <mxPoint x="60" y="395" />
            </Array>
          </mxGeometry>
        </mxCell>
        <mxCell id="FAJxj6uEZD9glTGLpSgn-6" value="System Administrator&amp;nbsp;" style="rounded=0;whiteSpace=wrap;html=1;fillColor=#dae8fc;strokeColor=#6c8ebf;" parent="1" vertex="1">
          <mxGeometry x="-10" y="250" width="120" height="60" as="geometry" />
        </mxCell>
        <mxCell id="FAJxj6uEZD9glTGLpSgn-7" value="has" style="rhombus;whiteSpace=wrap;html=1;fillColor=#d5e8d4;strokeColor=#82b366;" parent="1" vertex="1">
          <mxGeometry x="395" y="120" width="80" height="50" as="geometry" />
        </mxCell>
        <mxCell id="FAJxj6uEZD9glTGLpSgn-8" value="manages" style="rhombus;whiteSpace=wrap;html=1;fillColor=#d5e8d4;strokeColor=#82b366;" parent="1" vertex="1">
          <mxGeometry x="180" y="255" width="80" height="50" as="geometry" />
        </mxCell>
        <mxCell id="FAJxj6uEZD9glTGLpSgn-12" style="edgeStyle=orthogonalEdgeStyle;rounded=0;orthogonalLoop=1;jettySize=auto;html=1;entryX=0;entryY=0.5;entryDx=0;entryDy=0;" parent="1" source="FAJxj6uEZD9glTGLpSgn-10" target="FAJxj6uEZD9glTGLpSgn-3" edge="1">
          <mxGeometry relative="1" as="geometry">
            <Array as="points">
              <mxPoint x="590" y="280" />
              <mxPoint x="590" y="280" />
            </Array>
          </mxGeometry>
        </mxCell>
        <mxCell id="FAJxj6uEZD9glTGLpSgn-10" value="run it" style="rhombus;whiteSpace=wrap;html=1;fillColor=#d5e8d4;strokeColor=#82b366;" parent="1" vertex="1">
          <mxGeometry x="475" y="255" width="80" height="50" as="geometry" />
        </mxCell>
        <mxCell id="FAJxj6uEZD9glTGLpSgn-11" value="books ticket for" style="rhombus;whiteSpace=wrap;html=1;fillColor=#d5e8d4;strokeColor=#82b366;" parent="1" vertex="1">
          <mxGeometry x="316" y="15" width="116" height="50" as="geometry" />
        </mxCell>
        <mxCell id="FAJxj6uEZD9glTGLpSgn-18" value="" style="endArrow=classic;html=1;rounded=0;exitX=0.5;exitY=1;exitDx=0;exitDy=0;entryX=0.5;entryY=0;entryDx=0;entryDy=0;" parent="1" source="FAJxj6uEZD9glTGLpSgn-11" target="FAJxj6uEZD9glTGLpSgn-1" edge="1">
          <mxGeometry width="50" height="50" relative="1" as="geometry">
            <mxPoint x="350" y="230" as="sourcePoint" />
            <mxPoint x="400" y="180" as="targetPoint" />
          </mxGeometry>
        </mxCell>
        <mxCell id="FAJxj6uEZD9glTGLpSgn-19" value="" style="endArrow=classic;html=1;rounded=0;entryX=0;entryY=0.5;entryDx=0;entryDy=0;exitX=0.5;exitY=0;exitDx=0;exitDy=0;" parent="1" source="FAJxj6uEZD9glTGLpSgn-7" target="FAJxj6uEZD9glTGLpSgn-5" edge="1">
          <mxGeometry width="50" height="50" relative="1" as="geometry">
            <mxPoint x="510" y="230" as="sourcePoint" />
            <mxPoint x="560" y="180" as="targetPoint" />
            <Array as="points">
              <mxPoint x="435" y="70" />
            </Array>
          </mxGeometry>
        </mxCell>
        <mxCell id="FAJxj6uEZD9glTGLpSgn-20" value="" style="endArrow=none;html=1;rounded=0;entryX=0.5;entryY=1;entryDx=0;entryDy=0;exitX=1;exitY=0;exitDx=0;exitDy=0;" parent="1" source="FAJxj6uEZD9glTGLpSgn-1" target="FAJxj6uEZD9glTGLpSgn-7" edge="1">
          <mxGeometry width="50" height="50" relative="1" as="geometry">
            <mxPoint x="510" y="230" as="sourcePoint" />
            <mxPoint x="560" y="180" as="targetPoint" />
          </mxGeometry>
        </mxCell>
        <mxCell id="FAJxj6uEZD9glTGLpSgn-58" style="edgeStyle=orthogonalEdgeStyle;rounded=0;orthogonalLoop=1;jettySize=auto;html=1;entryX=0.5;entryY=0;entryDx=0;entryDy=0;" parent="1" source="FAJxj6uEZD9glTGLpSgn-23" target="FAJxj6uEZD9glTGLpSgn-47" edge="1">
          <mxGeometry relative="1" as="geometry" />
        </mxCell>
        <mxCell id="FAJxj6uEZD9glTGLpSgn-59" style="edgeStyle=orthogonalEdgeStyle;rounded=0;orthogonalLoop=1;jettySize=auto;html=1;entryX=0.5;entryY=0;entryDx=0;entryDy=0;" parent="1" source="FAJxj6uEZD9glTGLpSgn-23" target="FAJxj6uEZD9glTGLpSgn-46" edge="1">
          <mxGeometry relative="1" as="geometry">
            <Array as="points">
              <mxPoint x="770" y="570" />
              <mxPoint x="790" y="570" />
            </Array>
          </mxGeometry>
        </mxCell>
        <mxCell id="FAJxj6uEZD9glTGLpSgn-23" value="Screen" style="rounded=0;whiteSpace=wrap;html=1;fillColor=#dae8fc;strokeColor=#6c8ebf;" parent="1" vertex="1">
          <mxGeometry x="660" y="460" width="120" height="60" as="geometry" />
        </mxCell>
        <mxCell id="FAJxj6uEZD9glTGLpSgn-24" value="has" style="rhombus;whiteSpace=wrap;html=1;fillColor=#d5e8d4;strokeColor=#82b366;" parent="1" vertex="1">
          <mxGeometry x="685" y="355" width="70" height="45" as="geometry" />
        </mxCell>
        <mxCell id="FAJxj6uEZD9glTGLpSgn-25" value="" style="endArrow=none;html=1;rounded=0;entryX=0.5;entryY=1;entryDx=0;entryDy=0;exitX=0.5;exitY=0;exitDx=0;exitDy=0;" parent="1" source="FAJxj6uEZD9glTGLpSgn-24" target="FAJxj6uEZD9glTGLpSgn-3" edge="1">
          <mxGeometry width="50" height="50" relative="1" as="geometry">
            <mxPoint x="650" y="300" as="sourcePoint" />
            <mxPoint x="700" y="250" as="targetPoint" />
          </mxGeometry>
        </mxCell>
        <mxCell id="FAJxj6uEZD9glTGLpSgn-26" value="" style="endArrow=classic;html=1;rounded=0;entryX=0.5;entryY=0;entryDx=0;entryDy=0;exitX=0.5;exitY=1;exitDx=0;exitDy=0;" parent="1" source="FAJxj6uEZD9glTGLpSgn-24" target="FAJxj6uEZD9glTGLpSgn-23" edge="1">
          <mxGeometry width="50" height="50" relative="1" as="geometry">
            <mxPoint x="650" y="300" as="sourcePoint" />
            <mxPoint x="700" y="250" as="targetPoint" />
          </mxGeometry>
        </mxCell>
        <mxCell id="FAJxj6uEZD9glTGLpSgn-27" value="" style="endArrow=none;html=1;rounded=0;entryX=1;entryY=0.5;entryDx=0;entryDy=0;exitX=0;exitY=0.5;exitDx=0;exitDy=0;" parent="1" source="FAJxj6uEZD9glTGLpSgn-1" target="FAJxj6uEZD9glTGLpSgn-8" edge="1">
          <mxGeometry width="50" height="50" relative="1" as="geometry">
            <mxPoint x="320" y="280" as="sourcePoint" />
            <mxPoint x="510" y="220" as="targetPoint" />
          </mxGeometry>
        </mxCell>
        <mxCell id="FAJxj6uEZD9glTGLpSgn-28" value="" style="endArrow=classic;html=1;rounded=0;entryX=1;entryY=0.5;entryDx=0;entryDy=0;exitX=0;exitY=0.5;exitDx=0;exitDy=0;" parent="1" source="FAJxj6uEZD9glTGLpSgn-8" target="FAJxj6uEZD9glTGLpSgn-6" edge="1">
          <mxGeometry width="50" height="50" relative="1" as="geometry">
            <mxPoint x="460" y="270" as="sourcePoint" />
            <mxPoint x="510" y="220" as="targetPoint" />
          </mxGeometry>
        </mxCell>
        <mxCell id="FAJxj6uEZD9glTGLpSgn-31" value="&lt;u&gt;customer_id&lt;/u&gt;" style="ellipse;whiteSpace=wrap;html=1;fillColor=#fff2cc;strokeColor=#d6b656;" parent="1" vertex="1">
          <mxGeometry x="190" y="-275" width="80" height="50" as="geometry" />
        </mxCell>
        <mxCell id="FAJxj6uEZD9glTGLpSgn-32" value="customer_name" style="ellipse;whiteSpace=wrap;html=1;fillColor=#fff2cc;strokeColor=#d6b656;" parent="1" vertex="1">
          <mxGeometry x="280" y="-300" width="100" height="40" as="geometry" />
        </mxCell>
        <mxCell id="FAJxj6uEZD9glTGLpSgn-33" value="dob" style="ellipse;whiteSpace=wrap;html=1;fillColor=#fff2cc;strokeColor=#d6b656;" parent="1" vertex="1">
          <mxGeometry x="480" y="-270" width="80" height="40" as="geometry" />
        </mxCell>
        <mxCell id="FAJxj6uEZD9glTGLpSgn-35" value="contact_number" style="ellipse;whiteSpace=wrap;html=1;fillColor=#fff2cc;strokeColor=#d6b656;" parent="1" vertex="1">
          <mxGeometry x="370" y="-320" width="110" height="60" as="geometry" />
        </mxCell>
        <mxCell id="FAJxj6uEZD9glTGLpSgn-43" value="&lt;u&gt;admin_id&lt;/u&gt;" style="ellipse;whiteSpace=wrap;html=1;fillColor=#fff2cc;strokeColor=#d6b656;" parent="1" vertex="1">
          <mxGeometry x="-120" y="305" width="70" height="50" as="geometry" />
        </mxCell>
        <mxCell id="FAJxj6uEZD9glTGLpSgn-46" value="&lt;u&gt;screen_number&lt;/u&gt;" style="ellipse;whiteSpace=wrap;html=1;fillColor=#fff2cc;strokeColor=#d6b656;" parent="1" vertex="1">
          <mxGeometry x="755" y="610" width="105" height="50" as="geometry" />
        </mxCell>
        <mxCell id="FAJxj6uEZD9glTGLpSgn-47" value="num_of_seats" style="ellipse;whiteSpace=wrap;html=1;fillColor=#fff2cc;strokeColor=#d6b656;" parent="1" vertex="1">
          <mxGeometry x="640" y="630" width="90" height="50" as="geometry" />
        </mxCell>
        <mxCell id="FAJxj6uEZD9glTGLpSgn-49" value="&lt;u&gt;theatre_id&lt;/u&gt;" style="ellipse;whiteSpace=wrap;html=1;fillColor=#fff2cc;strokeColor=#d6b656;" parent="1" vertex="1">
          <mxGeometry x="650" y="140" width="70" height="50" as="geometry" />
        </mxCell>
        <mxCell id="FAJxj6uEZD9glTGLpSgn-50" value="theatre_address" style="ellipse;whiteSpace=wrap;html=1;fillColor=#fff2cc;strokeColor=#d6b656;" parent="1" vertex="1">
          <mxGeometry x="870" y="180" width="100" height="50" as="geometry" />
        </mxCell>
        <mxCell id="FAJxj6uEZD9glTGLpSgn-51" value="theatre_name" style="ellipse;whiteSpace=wrap;html=1;fillColor=#fff2cc;strokeColor=#d6b656;" parent="1" vertex="1">
          <mxGeometry x="755" y="165" width="105" height="50" as="geometry" />
        </mxCell>
        <mxCell id="FAJxj6uEZD9glTGLpSgn-60" value="&lt;u&gt;movie_id&lt;/u&gt;" style="ellipse;whiteSpace=wrap;html=1;fillColor=#fff2cc;strokeColor=#d6b656;" parent="1" vertex="1">
          <mxGeometry x="520" y="-85" width="80" height="45" as="geometry" />
        </mxCell>
        <mxCell id="FAJxj6uEZD9glTGLpSgn-62" value="movie_description" style="ellipse;whiteSpace=wrap;html=1;fillColor=#fff2cc;strokeColor=#d6b656;" parent="1" vertex="1">
          <mxGeometry x="740" y="-70" width="100" height="50" as="geometry" />
        </mxCell>
        <mxCell id="FRrUPI4zNOP217x3GCxh-7" value="theatre_id" style="ellipse;whiteSpace=wrap;html=1;fillColor=#fff2cc;strokeColor=#d6b656;" parent="1" vertex="1">
          <mxGeometry x="490" y="340" width="80" height="60" as="geometry" />
        </mxCell>
        <mxCell id="FRrUPI4zNOP217x3GCxh-8" value="movie_id" style="ellipse;whiteSpace=wrap;html=1;fillColor=#fff2cc;strokeColor=#d6b656;" parent="1" vertex="1">
          <mxGeometry x="490" y="140" width="80" height="60" as="geometry" />
        </mxCell>
        <mxCell id="FRrUPI4zNOP217x3GCxh-9" value="show_date" style="ellipse;whiteSpace=wrap;html=1;fillColor=#fff2cc;strokeColor=#d6b656;" parent="1" vertex="1">
          <mxGeometry x="200" y="340" width="80" height="60" as="geometry" />
        </mxCell>
        <mxCell id="FRrUPI4zNOP217x3GCxh-10" value="show_time" style="ellipse;whiteSpace=wrap;html=1;fillColor=#fff2cc;strokeColor=#d6b656;" parent="1" vertex="1">
          <mxGeometry x="210" y="140" width="80" height="60" as="geometry" />
        </mxCell>
        <mxCell id="FRrUPI4zNOP217x3GCxh-12" value="theatre_city" style="ellipse;whiteSpace=wrap;html=1;fillColor=#fff2cc;strokeColor=#d6b656;" parent="1" vertex="1">
          <mxGeometry x="900" y="240" width="80" height="50" as="geometry" />
        </mxCell>
        <mxCell id="FRrUPI4zNOP217x3GCxh-16" value="movie_title" style="ellipse;whiteSpace=wrap;html=1;fillColor=#fff2cc;strokeColor=#d6b656;" parent="1" vertex="1">
          <mxGeometry x="635" y="-100" width="85" height="50" as="geometry" />
        </mxCell>
        <mxCell id="FRrUPI4zNOP217x3GCxh-17" value="movie_genre" style="ellipse;whiteSpace=wrap;html=1;fillColor=#fff2cc;strokeColor=#d6b656;" parent="1" vertex="1">
          <mxGeometry x="850" y="10" width="90" height="50" as="geometry" />
        </mxCell>
        <mxCell id="FRrUPI4zNOP217x3GCxh-21" value="login_id" style="ellipse;whiteSpace=wrap;html=1;fillColor=#fff2cc;strokeColor=#d6b656;" parent="1" vertex="1">
          <mxGeometry x="180" y="-200" width="80" height="40" as="geometry" />
        </mxCell>
        <mxCell id="FRrUPI4zNOP217x3GCxh-25" value="admin_name" style="ellipse;whiteSpace=wrap;html=1;fillColor=#fff2cc;strokeColor=#d6b656;" parent="1" vertex="1">
          <mxGeometry x="-150" y="370" width="100" height="50" as="geometry" />
        </mxCell>
        <mxCell id="FRrUPI4zNOP217x3GCxh-29" value="" style="endArrow=classic;html=1;rounded=0;entryX=0.76;entryY=0.928;entryDx=0;entryDy=0;entryPerimeter=0;exitX=0.25;exitY=0;exitDx=0;exitDy=0;" parent="1" source="FAJxj6uEZD9glTGLpSgn-1" target="FRrUPI4zNOP217x3GCxh-10" edge="1">
          <mxGeometry width="50" height="50" relative="1" as="geometry">
            <mxPoint x="330" y="240" as="sourcePoint" />
            <mxPoint x="300" y="310" as="targetPoint" />
          </mxGeometry>
        </mxCell>
        <mxCell id="FRrUPI4zNOP217x3GCxh-30" value="" style="endArrow=classic;html=1;rounded=0;entryX=0;entryY=1;entryDx=0;entryDy=0;exitX=1;exitY=0.25;exitDx=0;exitDy=0;" parent="1" source="FAJxj6uEZD9glTGLpSgn-1" target="FRrUPI4zNOP217x3GCxh-8" edge="1">
          <mxGeometry width="50" height="50" relative="1" as="geometry">
            <mxPoint x="250" y="360" as="sourcePoint" />
            <mxPoint x="300" y="310" as="targetPoint" />
          </mxGeometry>
        </mxCell>
        <mxCell id="FRrUPI4zNOP217x3GCxh-31" value="" style="endArrow=classic;html=1;rounded=0;exitX=0.75;exitY=1;exitDx=0;exitDy=0;entryX=0;entryY=0.5;entryDx=0;entryDy=0;" parent="1" source="FAJxj6uEZD9glTGLpSgn-1" edge="1" target="FRrUPI4zNOP217x3GCxh-7">
          <mxGeometry width="50" height="50" relative="1" as="geometry">
            <mxPoint x="250" y="360" as="sourcePoint" />
            <mxPoint x="450" y="340" as="targetPoint" />
          </mxGeometry>
        </mxCell>
        <mxCell id="FRrUPI4zNOP217x3GCxh-33" value="" style="endArrow=classic;html=1;rounded=0;entryX=0;entryY=0.5;entryDx=0;entryDy=0;exitX=1;exitY=0.25;exitDx=0;exitDy=0;" parent="1" source="FAJxj6uEZD9glTGLpSgn-3" target="FAJxj6uEZD9glTGLpSgn-50" edge="1">
          <mxGeometry width="50" height="50" relative="1" as="geometry">
            <mxPoint x="580" y="360" as="sourcePoint" />
            <mxPoint x="630" y="310" as="targetPoint" />
          </mxGeometry>
        </mxCell>
        <mxCell id="FRrUPI4zNOP217x3GCxh-35" value="" style="endArrow=classic;html=1;rounded=0;entryX=0;entryY=0.5;entryDx=0;entryDy=0;exitX=1;exitY=0.75;exitDx=0;exitDy=0;" parent="1" source="FAJxj6uEZD9glTGLpSgn-3" target="FRrUPI4zNOP217x3GCxh-12" edge="1">
          <mxGeometry width="50" height="50" relative="1" as="geometry">
            <mxPoint x="580" y="360" as="sourcePoint" />
            <mxPoint x="630" y="310" as="targetPoint" />
          </mxGeometry>
        </mxCell>
        <mxCell id="jMHmI-cRYMjAyGBczA-L-1" value="screen_id" style="ellipse;whiteSpace=wrap;html=1;fillColor=#fff2cc;strokeColor=#d6b656;" vertex="1" parent="1">
          <mxGeometry x="877.5" y="330" width="85" height="50" as="geometry" />
        </mxCell>
        <mxCell id="sMW4JyKcbS1GKWFj7NpN-1" value="" style="endArrow=classic;html=1;rounded=0;entryX=1;entryY=0.5;entryDx=0;entryDy=0;exitX=0.25;exitY=1;exitDx=0;exitDy=0;" edge="1" parent="1" source="FAJxj6uEZD9glTGLpSgn-1" target="FRrUPI4zNOP217x3GCxh-9">
          <mxGeometry width="50" height="50" relative="1" as="geometry">
            <mxPoint x="520" y="240" as="sourcePoint" />
            <mxPoint x="570" y="190" as="targetPoint" />
          </mxGeometry>
        </mxCell>
        <mxCell id="sMW4JyKcbS1GKWFj7NpN-2" value="create ticket table&lt;br&gt;&amp;nbsp;customer id&lt;br&gt;movie show id&lt;br&gt;&amp;nbsp;" style="text;html=1;align=center;verticalAlign=middle;resizable=0;points=[];autosize=1;strokeColor=none;fillColor=none;" vertex="1" parent="1">
          <mxGeometry x="100" y="448" width="120" height="70" as="geometry" />
        </mxCell>
        <mxCell id="sMW4JyKcbS1GKWFj7NpN-3" value="&lt;font style=&quot;font-size: 20px;&quot;&gt;seats&lt;br&gt;seat number&lt;br&gt;status(booked,avaiable)&lt;br&gt;screen number&lt;/font&gt;" style="text;html=1;strokeColor=none;fillColor=none;align=center;verticalAlign=middle;whiteSpace=wrap;rounded=0;" vertex="1" parent="1">
          <mxGeometry x="382" y="550" width="188" height="140" as="geometry" />
        </mxCell>
        <mxCell id="FAJxj6uEZD9glTGLpSgn-34" value="email_id" style="ellipse;whiteSpace=wrap;html=1;fillColor=#fff2cc;strokeColor=#d6b656;" parent="1" vertex="1">
          <mxGeometry x="490" y="-195" width="90" height="50" as="geometry" />
        </mxCell>
        <mxCell id="T1D6QIcHysQejSJhd26s-1" value="&lt;font style=&quot;font-size: 20px;&quot;&gt;Login(login_id,username, password,role_id ),role(role_id,role_name) tables&amp;nbsp;&amp;nbsp;&lt;/font&gt;" style="text;html=1;align=center;verticalAlign=middle;resizable=0;points=[];autosize=1;strokeColor=none;fillColor=none;" vertex="1" parent="1">
          <mxGeometry x="305" y="-350" width="700" height="40" as="geometry" />
        </mxCell>
        <mxCell id="T1D6QIcHysQejSJhd26s-3" value="login_id" style="ellipse;whiteSpace=wrap;html=1;fillColor=#fff2cc;strokeColor=#d6b656;" vertex="1" parent="1">
          <mxGeometry x="-140" y="245" width="80" height="40" as="geometry" />
        </mxCell>
        <mxCell id="iHVil-Y_zBu7BtdDHLMN-1" value="" style="endArrow=none;html=1;rounded=0;entryX=0.5;entryY=1;entryDx=0;entryDy=0;exitX=0.5;exitY=0;exitDx=0;exitDy=0;" edge="1" parent="1" source="FAJxj6uEZD9glTGLpSgn-11" target="FAJxj6uEZD9glTGLpSgn-2">
          <mxGeometry width="50" height="50" relative="1" as="geometry">
            <mxPoint x="470" y="30" as="sourcePoint" />
            <mxPoint x="520" y="-20" as="targetPoint" />
          </mxGeometry>
        </mxCell>
        <mxCell id="iHVil-Y_zBu7BtdDHLMN-6" value="" style="endArrow=classic;html=1;rounded=0;entryX=1;entryY=0.5;entryDx=0;entryDy=0;exitX=0;exitY=0.5;exitDx=0;exitDy=0;" edge="1" parent="1" source="FAJxj6uEZD9glTGLpSgn-2" target="FRrUPI4zNOP217x3GCxh-21">
          <mxGeometry width="50" height="50" relative="1" as="geometry">
            <mxPoint x="470" y="30" as="sourcePoint" />
            <mxPoint x="520" y="-20" as="targetPoint" />
          </mxGeometry>
        </mxCell>
        <mxCell id="iHVil-Y_zBu7BtdDHLMN-7" value="" style="endArrow=classic;html=1;rounded=0;entryX=1;entryY=1;entryDx=0;entryDy=0;exitX=0;exitY=0;exitDx=0;exitDy=0;" edge="1" parent="1" source="FAJxj6uEZD9glTGLpSgn-2" target="FAJxj6uEZD9glTGLpSgn-31">
          <mxGeometry width="50" height="50" relative="1" as="geometry">
            <mxPoint x="326" y="-165" as="sourcePoint" />
            <mxPoint x="260" y="-170" as="targetPoint" />
          </mxGeometry>
        </mxCell>
        <mxCell id="iHVil-Y_zBu7BtdDHLMN-8" value="" style="endArrow=classic;html=1;rounded=0;entryX=0.5;entryY=1;entryDx=0;entryDy=0;exitX=0.5;exitY=0;exitDx=0;exitDy=0;" edge="1" parent="1" source="FAJxj6uEZD9glTGLpSgn-2" target="FAJxj6uEZD9glTGLpSgn-35">
          <mxGeometry width="50" height="50" relative="1" as="geometry">
            <mxPoint x="407" y="-185" as="sourcePoint" />
            <mxPoint x="341" y="-190" as="targetPoint" />
          </mxGeometry>
        </mxCell>
        <mxCell id="iHVil-Y_zBu7BtdDHLMN-9" value="" style="endArrow=classic;html=1;rounded=0;entryX=0.704;entryY=0.974;entryDx=0;entryDy=0;entryPerimeter=0;exitX=0.338;exitY=0.022;exitDx=0;exitDy=0;exitPerimeter=0;" edge="1" parent="1" source="FAJxj6uEZD9glTGLpSgn-2" target="FAJxj6uEZD9glTGLpSgn-32">
          <mxGeometry width="50" height="50" relative="1" as="geometry">
            <mxPoint x="350" y="-150" as="sourcePoint" />
            <mxPoint x="316" y="-170" as="targetPoint" />
          </mxGeometry>
        </mxCell>
        <mxCell id="iHVil-Y_zBu7BtdDHLMN-13" value="" style="endArrow=classic;html=1;rounded=0;entryX=0;entryY=1;entryDx=0;entryDy=0;" edge="1" parent="1" source="FAJxj6uEZD9glTGLpSgn-2" target="FAJxj6uEZD9glTGLpSgn-33">
          <mxGeometry width="50" height="50" relative="1" as="geometry">
            <mxPoint x="468" y="-195" as="sourcePoint" />
            <mxPoint x="402" y="-200" as="targetPoint" />
          </mxGeometry>
        </mxCell>
        <mxCell id="iHVil-Y_zBu7BtdDHLMN-14" value="" style="endArrow=classic;html=1;rounded=0;entryX=0.055;entryY=0.792;entryDx=0;entryDy=0;exitX=0.857;exitY=0.022;exitDx=0;exitDy=0;entryPerimeter=0;exitPerimeter=0;" edge="1" parent="1" source="FAJxj6uEZD9glTGLpSgn-2" target="FAJxj6uEZD9glTGLpSgn-34">
          <mxGeometry width="50" height="50" relative="1" as="geometry">
            <mxPoint x="468" y="-195" as="sourcePoint" />
            <mxPoint x="402" y="-200" as="targetPoint" />
          </mxGeometry>
        </mxCell>
        <mxCell id="iHVil-Y_zBu7BtdDHLMN-15" value="login" style="rounded=0;whiteSpace=wrap;html=1;fillColor=#dae8fc;strokeColor=#6c8ebf;" vertex="1" parent="1">
          <mxGeometry x="-40" y="-145" width="120" height="60" as="geometry" />
        </mxCell>
        <mxCell id="iHVil-Y_zBu7BtdDHLMN-16" value="username" style="ellipse;whiteSpace=wrap;html=1;fillColor=#fff2cc;strokeColor=#d6b656;" vertex="1" parent="1">
          <mxGeometry x="-150" y="-225" width="80" height="50" as="geometry" />
        </mxCell>
        <mxCell id="BZmg7DLPFQIpjkf8fVdI-3" value="password" style="ellipse;whiteSpace=wrap;html=1;fillColor=#fff2cc;strokeColor=#d6b656;" vertex="1" parent="1">
          <mxGeometry x="-70" y="-260" width="80" height="50" as="geometry" />
        </mxCell>
        <mxCell id="BZmg7DLPFQIpjkf8fVdI-4" value="role_id" style="ellipse;whiteSpace=wrap;html=1;fillColor=#fff2cc;strokeColor=#d6b656;" vertex="1" parent="1">
          <mxGeometry x="20" y="-250" width="80" height="50" as="geometry" />
        </mxCell>
        <mxCell id="BZmg7DLPFQIpjkf8fVdI-5" value="&lt;u&gt;login_id&lt;/u&gt;" style="ellipse;whiteSpace=wrap;html=1;fillColor=#fff2cc;strokeColor=#d6b656;" vertex="1" parent="1">
          <mxGeometry x="-170" y="-120" width="80" height="50" as="geometry" />
        </mxCell>
        <mxCell id="BZmg7DLPFQIpjkf8fVdI-6" value="has a" style="rhombus;whiteSpace=wrap;html=1;fillColor=#d5e8d4;strokeColor=#82b366;" vertex="1" parent="1">
          <mxGeometry x="150" y="-142.5" width="80" height="55" as="geometry" />
        </mxCell>
        <mxCell id="BZmg7DLPFQIpjkf8fVdI-7" value="" style="endArrow=none;html=1;rounded=0;entryX=0;entryY=0.5;entryDx=0;entryDy=0;exitX=1;exitY=0.5;exitDx=0;exitDy=0;" edge="1" parent="1" source="BZmg7DLPFQIpjkf8fVdI-6" target="FAJxj6uEZD9glTGLpSgn-2">
          <mxGeometry width="50" height="50" relative="1" as="geometry">
            <mxPoint x="250" y="-60" as="sourcePoint" />
            <mxPoint x="300" y="-110" as="targetPoint" />
          </mxGeometry>
        </mxCell>
        <mxCell id="BZmg7DLPFQIpjkf8fVdI-8" value="" style="endArrow=classic;html=1;rounded=0;entryX=1;entryY=0.5;entryDx=0;entryDy=0;exitX=0;exitY=0.5;exitDx=0;exitDy=0;" edge="1" parent="1" source="BZmg7DLPFQIpjkf8fVdI-6" target="iHVil-Y_zBu7BtdDHLMN-15">
          <mxGeometry width="50" height="50" relative="1" as="geometry">
            <mxPoint x="70" as="sourcePoint" />
            <mxPoint x="120" y="-50" as="targetPoint" />
          </mxGeometry>
        </mxCell>
        <mxCell id="BZmg7DLPFQIpjkf8fVdI-10" value="" style="endArrow=classic;html=1;rounded=0;entryX=0.324;entryY=0.972;entryDx=0;entryDy=0;entryPerimeter=0;exitX=0.568;exitY=0.011;exitDx=0;exitDy=0;exitPerimeter=0;" edge="1" parent="1" source="iHVil-Y_zBu7BtdDHLMN-15" target="BZmg7DLPFQIpjkf8fVdI-4">
          <mxGeometry width="50" height="50" relative="1" as="geometry">
            <mxPoint x="35" y="-142.5" as="sourcePoint" />
            <mxPoint x="85" y="-192.5" as="targetPoint" />
          </mxGeometry>
        </mxCell>
        <mxCell id="BZmg7DLPFQIpjkf8fVdI-11" value="" style="endArrow=classic;html=1;rounded=0;entryX=0.5;entryY=1;entryDx=0;entryDy=0;exitX=0.25;exitY=0;exitDx=0;exitDy=0;" edge="1" parent="1" source="iHVil-Y_zBu7BtdDHLMN-15" target="BZmg7DLPFQIpjkf8fVdI-3">
          <mxGeometry width="50" height="50" relative="1" as="geometry">
            <mxPoint x="45" y="-132.5" as="sourcePoint" />
            <mxPoint x="95" y="-182.5" as="targetPoint" />
          </mxGeometry>
        </mxCell>
        <mxCell id="BZmg7DLPFQIpjkf8fVdI-12" value="" style="endArrow=classic;html=1;rounded=0;entryX=1;entryY=1;entryDx=0;entryDy=0;exitX=0;exitY=0;exitDx=0;exitDy=0;" edge="1" parent="1" source="iHVil-Y_zBu7BtdDHLMN-15" target="iHVil-Y_zBu7BtdDHLMN-16">
          <mxGeometry width="50" height="50" relative="1" as="geometry">
            <mxPoint x="55" y="-122.5" as="sourcePoint" />
            <mxPoint x="105" y="-172.5" as="targetPoint" />
          </mxGeometry>
        </mxCell>
        <mxCell id="BZmg7DLPFQIpjkf8fVdI-13" value="" style="endArrow=classic;html=1;rounded=0;entryX=0.953;entryY=0.667;entryDx=0;entryDy=0;entryPerimeter=0;exitX=0;exitY=0.75;exitDx=0;exitDy=0;" edge="1" parent="1" source="iHVil-Y_zBu7BtdDHLMN-15" target="BZmg7DLPFQIpjkf8fVdI-5">
          <mxGeometry width="50" height="50" relative="1" as="geometry">
            <mxPoint x="65" y="-112.5" as="sourcePoint" />
            <mxPoint x="115" y="-162.5" as="targetPoint" />
          </mxGeometry>
        </mxCell>
      </root>
    </mxGraphModel>
  </diagram>
</mxfile>
